# xmcd
#
# Track frame offsets:
#	150
#	24304
#	36570
#	52508
#	70254
#	88569
#	102134
#	132150
#	159021
#	173453
#	198984
#	215653
#	228022
#	239358
#
# Disc length: 3330 seconds
#
# Revision: 0
# Processed by: cddbd v1.5.2PL0 Copyright (c) Steve Scherf et al.
# Submitted via: dBpowerAMP V4.0
#
DISCID=a40d000e
DTITLE=Carlos Carega - A Espera de Tom
DYEAR=2008
DGENRE=Blues
TTITLE0=E Tudo Fica Azul
TTITLE1=Eu e Meu Cachorro Louco
TTITLE2=Garota de Guarulhos
TTITLE3=Guarana Jesus
TTITLE4=Num Trem de Metro
TTITLE5=Inocente Quando Sonha
TTITLE6=Boa Noite Matilda
TTITLE7=Tempo Time
TTITLE8=Tentação
TTITLE9=Pro Meu Rubi
TTITLE10=Soldado Ate o Fim
TTITLE11=Nao Baixe a Cabeça Assim
TTITLE12=Eu Nao Quero Crescer
TTITLE13=Qualquer Lugar Que Eu Me Encostar
EXTD=14 versions for Tom Waits songs in Portuguese made by Carlos Careqa
EXTT0=
EXTT1=
EXTT2=
EXTT3=
EXTT4=
EXTT5=
EXTT6=
EXTT7=
EXTT8=
EXTT9=
EXTT10=
EXTT11=
EXTT12=
EXTT13=
PLAYORDER=
